<svg width="320" height="159" viewBox="0 0 320 159" fill="none" xmlns="http://www.w3.org/2000/svg"><g clip-path="url(#clip0)"><path fill="#2B91CF" d="M-25.902 144.845H340.24v5.505H-25.902z"/><path d="M-26.678 119.159h366.141" stroke="#2B85C6" stroke-width=".81" stroke-linecap="round" stroke-linejoin="round"/><path d="M-15.487 134.872h348.139" stroke="#2B85C6" stroke-width=".81" stroke-linecap="round" stroke-linejoin="round" stroke-dasharray="4.78"/><path d="M164.734 68.773h30.81a2.973 2.973 0 0 1 2.973 2.973v6.825H161.76V71.74a2.975 2.975 0 0 1 2.974-2.967v0zM84.181 68.773h60.748a2.974 2.974 0 0 1 2.974 2.973v6.825H81.234V71.74a2.974 2.974 0 0 1 2.947-2.967v0zM47.043 68.773h11.46a2.974 2.974 0 0 1 2.973 2.973v6.825H44.062V71.74a2.973 2.973 0 0 1 2.98-2.967z" fill="#D8EFF7" stroke="#123456" stroke-width="1.614" stroke-linecap="round"/><path d="M241.872 89.67h2.384a3.711 3.711 0 0 1 3.71 3.71v11.386a3.71 3.71 0 0 1-3.71 3.71h-2.411v-18.82l.027.013zM190.922 149.66a11.102 11.102 0 0 0 9.844-16.732 11.106 11.106 0 0 0-9.844-5.47h-4.226v22.202h4.226z" fill="#92CEE8" stroke="#133456" stroke-width="1.614" stroke-linecap="round" stroke-linejoin="round"/><path d="M186.227 149.681c6.129 0 11.098-4.969 11.098-11.098 0-6.13-4.969-11.099-11.098-11.099-6.129 0-11.098 4.969-11.098 11.099 0 6.129 4.969 11.098 11.098 11.098z" fill="#289ED8" stroke="#123456" stroke-width="1.614"/><path d="M118.413 149.66c6.025-.148 10.832-5.074 10.832-11.101 0-6.027-4.807-10.953-10.832-11.101h-4.226v22.202h4.226z" fill="#92CEE8" stroke="#133456" stroke-width="1.614" stroke-linecap="round" stroke-linejoin="round"/><path d="M113.718 149.681c6.129 0 11.098-4.969 11.098-11.098 0-6.13-4.969-11.099-11.098-11.099-6.129 0-11.098 4.969-11.098 11.099 0 6.129 4.969 11.098 11.098 11.098z" fill="#289ED8" stroke="#123456" stroke-width="1.614"/><path d="M185.316 72.845h38.09a16.965 16.965 0 0 1 12.652 5.559c8.627 9.618 11.775 26.469 11.775 56.368v1.406a6.215 6.215 0 0 1-6.216 6.215h-56.301" fill="#92CEE8"/><path d="M185.316 72.845h38.09a16.965 16.965 0 0 1 12.652 5.559c8.627 9.618 11.775 26.469 11.775 56.368v1.406a6.215 6.215 0 0 1-6.216 6.215h-56.301" stroke="#123456" stroke-width="1.614"/><path d="M191.277 142.393h47.715a6.222 6.222 0 0 0 6.222-6.215v-1.406c0-6.39-.148-12.17-.456-17.414h-53.481v25.035zM220.814 72.845h-29.537v4.306H232.2a17.065 17.065 0 0 0-11.386-4.306z" fill="#D8EFF7"/><path d="M232.2 77.151h-40.923v40.187h53.481c-1.172-19.33-4.521-31.372-11.325-38.934a17.041 17.041 0 0 0-1.233-1.252z" fill="#289ED8"/><path d="M242.836 114.444 211.303 78.37l3.738-.85 29.007 33.508.308 4.119-1.52-.703zM240.003 115.147 207.767 78.39h1.145l31.667 36.181-.576.576zM243.151 104.806l-22.598-27.012.288-.28 22.604 27.011-.294.281z" fill="#D8EFF7" opacity=".2"/><path d="M204.74 142.393H41.718a7.621 7.621 0 0 1-7.622-7.621V80.467a7.622 7.622 0 0 1 7.622-7.622h144.777a16.95 16.95 0 0 1 12.645 5.559c8.627 9.618 11.781 26.462 11.781 56.368v1.406a6.22 6.22 0 0 1-6.181 6.215z" fill="#92CEE8"/><path d="M34.237 130.237h3.61c1.158 0 2.096.939 2.096 2.097v.864a2.096 2.096 0 0 1-2.096 2.096h-3.61v-5.057z" fill="#289ED8" stroke="#123456" stroke-width=".81"/><path d="M152.27 104.069H34.39v4.883h117.88a25.448 25.448 0 0 1 16.476 6.028l3.168-3.717a30.358 30.358 0 0 0-19.644-7.194z" fill="#D8EFF7"/><path d="M244.396 117.351h-33.957l.235 4.876h34.131l-.409-4.876z" fill="#92CEE8"/><path d="M188.391 117.351a25.45 25.45 0 0 1-16.477-6.028l-3.161 3.717a30.334 30.334 0 0 0 19.638 7.16h22.283l-.235-4.876-22.048.027z" fill="#D8EFF7"/><path d="M216.548 130.05v.542c0 1.11-.9 2.009-2.01 2.009h-3.63c0-2.906-.06-5.686-.134-8.338a5.782 5.782 0 0 1 5.774 5.787zM216.548 136.935a1.34 1.34 0 0 1-1.307 1.306H210.7c.146-.514.22-1.046.221-1.581v-2.585h2.767a2.857 2.857 0 0 1 2.86 2.86zM241.396 130.05v.542c0 1.11.9 2.009 2.009 2.009h4.414c0-2.906-.147-8.338-.147-8.338h-.503a5.778 5.778 0 0 0-5.773 5.787z" fill="#289ED8" stroke="#123456" stroke-width=".81" stroke-linecap="round" stroke-linejoin="round"/><path d="M244.109 130.987a1.507 1.507 0 1 0 0-3.013 1.507 1.507 0 0 0 0 3.013z" fill="#92CEE8"/><path d="M241.396 136.935a1.34 1.34 0 0 0 1.306 1.306h4.548a5.077 5.077 0 0 0 .576-1.614v-2.552h-3.57a2.86 2.86 0 0 0-2.86 2.86h0z" fill="#289ED8" stroke="#123456" stroke-width=".81" stroke-linecap="round" stroke-linejoin="round"/><path d="M244.108 137.317a1.065 1.065 0 1 0 0-2.13 1.065 1.065 0 0 0 0 2.13z" fill="#92CEE8"/><path d="M210.908 132.608h-1.199a2.01 2.01 0 0 1-2.009-2.009v-4.313c0-1.11.9-2.01 2.009-2.01h1.058c.081 2.646.134 5.425.141 8.332z" fill="#289ED8" stroke="#133456" stroke-width=".81" stroke-linecap="round" stroke-linejoin="round"/><path d="M210.922 134.075v2.585a5.905 5.905 0 0 1-.221 1.581h-1.695a1.34 1.34 0 0 1-1.306-1.306v-1.554c0-.727.579-1.321 1.306-1.339l1.916.033z" fill="#289ED8" stroke="#123456" stroke-width=".81" stroke-linecap="round" stroke-linejoin="round"/><path clip-rule="evenodd" d="M210.922 137.317c0 2.196-1.239 5.076-5.734 5.076H41.718a7.628 7.628 0 0 1-7.628-7.621V80.467a7.629 7.629 0 0 1 7.628-7.622h144.777a16.95 16.95 0 0 1 12.645 5.559c7.562 8.426 10.918 22.41 11.634 45.866l.134 8.338c.007.342.014 3.168.014 4.709z" stroke="#133456" stroke-width="1.614" stroke-linecap="round" stroke-linejoin="round"/><path fill="#289ED8" d="M109.083 77.151h20.977v26.918h-20.977zM85.447 77.151h20.977v26.918H85.447zM61.811 77.151h20.977v26.918H61.811zM45.563 77.151a3.871 3.871 0 0 0-3.872 3.878v23.04h17.461V77.151h-13.59zM132.726 77.151v26.918h19.544c.482 0 .958 0 1.433.041V77.151h-20.977zM205.872 116.701a.597.597 0 0 1-.597.67h-16.891a27.824 27.824 0 0 1-8.379-1.286V77.151h3.711a16.344 16.344 0 0 1 12.317 5.58 26.986 26.986 0 0 1 2.927 4.099c.488.844.944 1.728 1.379 2.679 3.061 6.53 4.655 15.331 5.533 27.192zM156.362 77.151v27.227a27.83 27.83 0 0 1 13.972 6.329 27.631 27.631 0 0 0 7.012 4.353V77.151h-20.984z"/><path d="m204.539 120.184-42.584-43.086 4.594.013 39.195 39.65.308 4.12-1.513-.697zM200.085 119.266l-41.667-42.155h1.146l41.103 41.579-.582.576zM197.848 103.534l-26.141-26.503.495-.08 25.934 26.301-.288.282zM135.278 104.11l-26.717-26.999 4.595.014 26.703 26.985h-4.581zM131.849 104.237l-26.831-27.112h1.145l26.617 26.891-.931.221zM145.104 104.25l-26.61-27.052.495-.08 26.624 27.065-.509.067zM80.679 104.11 53.955 77.111l4.594.014 26.71 26.985h-4.58zM76.941 104.177l-26.61-27.059.496-.074L77.45 104.11l-.509.067z" fill="#D8EFF7" opacity=".2"/><path d="M200.353 89.482h-20.348v26.576a31.67 31.67 0 0 1-2.679-.998V77.151h2.679v9.679h18.968a35.43 35.43 0 0 1 1.38 2.652zM153.703 77.151v26.965c.898.047 1.782.134 2.679.268V77.151h-2.679zM130.067 77.151h2.659v26.918h-2.659zM106.431 77.151h2.659v26.918h-2.659zM82.788 77.151h2.659v26.918h-2.659zM59.152 77.151h2.659v26.918h-2.659z" fill="#123456"/><path d="m205.697 114.504.101 1.273c.08 1.045.12 2.096.12 3.148v18.459a4.318 4.318 0 0 1-1.681 3.422 3.883 3.883 0 0 1-1.112.576l-2.927 1.011M174.486 142.394l2.92-1.012c.402-.129.78-.324 1.119-.576a4.338 4.338 0 0 0 1.681-3.422V89.482h19.999M104.06 142.393l1.232-.997a6.572 6.572 0 0 0 2.452-5.117v-15.66" stroke="#133456" stroke-width=".81" stroke-linecap="round" stroke-linejoin="round"/><path d="M205.697 114.504c-1.292-15.29-3.951-25.243-9.651-31.773a16.356 16.356 0 0 0-12.33-5.58H45.563a3.87 3.87 0 0 0-3.872 3.878v23.04H152.27a27.894 27.894 0 0 1 18.084 6.638 27.847 27.847 0 0 0 9.664 5.358M180.005 120.619H34.357" stroke="#123456" stroke-width=".81"/><path d="M168.753 142.34h-40.367l8.164-10.716a10.919 10.919 0 0 1 8.674-4.367h6.972c3.49.019 6.76 1.704 8.801 4.534l7.756 10.549z" fill="#289ED8" stroke="#123456" stroke-width="1.614"/><path d="M151.058 149.66c6.025-.148 10.832-5.074 10.832-11.101 0-6.027-4.807-10.953-10.832-11.101h-4.226v22.202h4.226z" fill="#289ED8" stroke="#123456" stroke-width="1.614"/><path d="M146.363 149.681c6.129 0 11.098-4.969 11.098-11.098 0-6.13-4.969-11.099-11.098-11.099-6.13 0-11.098 4.969-11.098 11.099 0 6.129 4.968 11.098 11.098 11.098z" fill="#92CEE8" stroke="#133456" stroke-width="1.614" stroke-linecap="round" stroke-linejoin="round"/><path opacity=".5" d="M146.142 144.845a5.853 5.853 0 0 0 5.853-5.854 5.853 5.853 0 1 0-11.707 0 5.854 5.854 0 0 0 5.854 5.854z" fill="#289ED8"/><path d="M146.115 143.659a4.983 4.983 0 1 0 0-9.966 4.983 4.983 0 0 0 0 9.966z" fill="#D8EFF7" stroke="#123456" stroke-width=".81" stroke-linecap="round"/><path d="M96.237 142.34H55.89l8.171-10.716a10.897 10.897 0 0 1 8.674-4.367h6.972a10.942 10.942 0 0 1 8.801 4.534l7.73 10.549z" fill="#289ED8" stroke="#123456" stroke-width="1.614"/><path d="M78.549 149.66c6.025-.148 10.832-5.074 10.832-11.101 0-6.027-4.807-10.953-10.832-11.101h-4.227v22.202h4.227z" fill="#289ED8" stroke="#123456" stroke-width="1.614"/><path d="M73.854 149.681c6.129 0 11.098-4.969 11.098-11.098 0-6.13-4.97-11.099-11.098-11.099-6.13 0-11.098 4.969-11.098 11.099 0 6.129 4.968 11.098 11.098 11.098z" fill="#92CEE8" stroke="#133456" stroke-width="1.614" stroke-linecap="round" stroke-linejoin="round"/><path opacity=".5" d="M73.633 144.845a5.854 5.854 0 1 0 0-11.708 5.854 5.854 0 0 0 0 11.708z" fill="#289ED8"/><path d="M73.606 143.659a4.983 4.983 0 1 0 0-9.966 4.983 4.983 0 0 0 0 9.966z" fill="#D8EFF7" stroke="#123456" stroke-width=".81" stroke-linecap="round"/><path d="M71.389 120.619v6.886-6.886z" fill="#289ED8"/><path d="M71.389 120.619v6.886" stroke="#123456" stroke-width=".81"/><path d="M143.623 120.619v6.886-6.886z" fill="#289ED8"/><path d="M143.623 120.619v6.886" stroke="#123456" stroke-width=".81"/><path fill="#289ED8" stroke="#123456" stroke-width=".81" stroke-linejoin="round" d="M115.935 137.357h5.827v2.177h-5.827z"/><path fill="#D8EFF7" d="M172.738 127.357h4.655v2.177h-4.655z"/><path fill="#289ED8" stroke="#123456" stroke-width=".81" stroke-linejoin="round" d="M182.691 125.08h4.655v2.177h-4.655z"/><path fill="#D8EFF7" d="M172.738 133.666h4.655v2.177h-4.655z"/><path fill="#92CEE8" stroke="#133456" stroke-width=".81" stroke-linecap="round" stroke-linejoin="round" d="M117.529 138.449h2.465v1.092h-2.465z"/><path fill="#289ED8" stroke="#123456" stroke-width=".81" stroke-linejoin="round" d="M96.632 137.357h5.827v2.177h-5.827z"/><path fill="#92CEE8" stroke="#133456" stroke-width=".81" stroke-linecap="round" stroke-linejoin="round" d="M98.227 138.449h2.465v1.092h-2.465z"/><path d="M182.457 72.845h38.089a16.958 16.958 0 0 1 12.652 5.559c8.627 9.618 11.781 26.469 11.781 56.368v1.406a6.222 6.222 0 0 1-6.215 6.216h-56.307" stroke="#133456" stroke-width=".81" stroke-linecap="round" stroke-linejoin="round"/><path d="M231.771 77.151h-33.876s3.074 2.753 4.072 4.307l-.335-1.239a1.24 1.24 0 0 1 1.192-1.554h28.345c.899 0 1.77.312 2.464.884l1.434 1.172-3.296-3.57zM210.439 117.351h33.958s-.067-4.213-.134-4.997l-.262.945a1.709 1.709 0 0 1-1.641 1.246h-28.331a2.408 2.408 0 0 1-2.083-1.199l-1.714-2.954.207 6.959z" fill="#123456"/><path d="M216.548 130.05h24.848-24.848z" fill="#289ED8"/><path d="M216.548 130.05h24.848" stroke="#123456" stroke-width=".81" stroke-linecap="round" stroke-linejoin="round"/><path d="M216.548 136.54h24.848-24.848z" fill="#289ED8"/><path d="M216.548 136.54h24.848" stroke="#123456" stroke-width=".81" stroke-linecap="round" stroke-linejoin="round"/><path d="M228.771 131.965c2.256 0 4.085-.788 4.085-1.761 0-.973-1.829-1.762-4.085-1.762-2.257 0-4.086.789-4.086 1.762s1.829 1.761 4.086 1.761z" fill="#92CEE8" stroke="#133456" stroke-width=".603" stroke-linecap="round" stroke-linejoin="round"/><path d="M230.264 131.965c2.257 0 4.086-.788 4.086-1.761 0-.973-1.829-1.762-4.086-1.762-2.256 0-4.085.789-4.085 1.762s1.829 1.761 4.085 1.761z" fill="#289ED8" stroke="#123456" stroke-width=".603" stroke-linecap="round" stroke-linejoin="round"/><rect x="195.959" y="140.049" width="45.437" height="4.956" rx="2.056" fill="#289ED8" stroke="#123456" stroke-width="1.614"/><rect x="204.016" y="140.049" width="45.437" height="4.956" rx="2.056" fill="#92CEE8" stroke="#133456" stroke-width="1.614" stroke-linecap="round" stroke-linejoin="round"/><rect x="31.605" y="140.049" width="23.12" height="4.956" rx="2.056" fill="#289ED8" stroke="#123456" stroke-width="1.614"/><rect x="38.034" y="140.049" width="20.709" height="4.956" rx="2.056" fill="#92CEE8" stroke="#133456" stroke-width="1.614" stroke-linecap="round" stroke-linejoin="round"/><path d="M34.357 123.392h9.598c1.158 0 2.097.939 2.097 2.097v.864a2.097 2.097 0 0 1-2.097 2.096h-9.598v-5.057z" fill="#289ED8" stroke="#123456" stroke-width=".81"/><path d="M213.473 130.987a1.506 1.506 0 1 0 .002-3.012 1.506 1.506 0 0 0-.002 3.012zM213.882 137.317a1.065 1.065 0 1 0 0-2.13 1.065 1.065 0 0 0 0 2.13z" fill="#92CEE8"/><path d="M198.959 89.67h2.432a3.71 3.71 0 0 1 3.71 3.71v11.386a3.71 3.71 0 0 1-3.71 3.71h-2.411v-18.82l-.021.013z" fill="#92CEE8" stroke="#133456" stroke-width="1.614" stroke-linecap="round" stroke-linejoin="round"/><rect x="197.895" y="88.504" width="2.311" height="21.031" rx=".958" fill="#D8EFF7" stroke="#123456" stroke-width="1.614" stroke-linecap="round"/><path d="M340.367 150.484H-25.466" stroke="#133456" stroke-width="1.614" stroke-linecap="round" stroke-linejoin="round"/><path d="M267.162 115.1h1.654a2.385 2.385 0 0 1 2.385 2.385v26.67a2.384 2.384 0 0 1-2.385 2.384h-.984a2.384 2.384 0 0 1-2.385-2.384v-27.313a1.716 1.716 0 0 1 1.715-1.742z" fill="#D8EFF7" stroke="#123456" stroke-width="1.34" stroke-linecap="round" stroke-linejoin="round"/><rect x="256.821" y="115.1" width="5.747" height="31.439" rx="2.384" fill="#D8EFF7" stroke="#123456" stroke-width="1.34" stroke-linecap="round" stroke-linejoin="round"/><path d="M256.747 115.898c0 2.98 3.161 7.668 7.033 7.668h.294c3.872 0 7.033-4.688 7.033-7.668v-.804h-14.36v.804z" fill="#D8EFF7"/><g style="mix-blend-mode:multiply" opacity=".3"><path fill="#D8EFF7" d="M256.854 115.067h14.333v1.085h-14.333z"/><path stroke="#123456" stroke-width="1.34" stroke-linecap="round" stroke-linejoin="round" d="M256.854 115.067h14.333v1.085h-14.333z"/></g><path d="M261.087 123.151c.866.276 1.77.416 2.679.415h.295a8.887 8.887 0 0 0 2.806-.448" fill="#D8EFF7"/><path d="M261.087 123.151c.866.276 1.77.416 2.679.415h.295a8.887 8.887 0 0 0 2.806-.448" stroke="#123456" stroke-width="1.34" stroke-linecap="round" stroke-linejoin="round"/><path d="M274.214 109.876H271.2v8.325h-14.353l.034-10.877s-1.085 3.229-2.15 4.334a12.507 12.507 0 0 1-7.856 3.844l.375-3.871.87-.254a7.181 7.181 0 0 0 5.131-6.879c0-4.28 3.469-7.75 7.749-7.75h6.604a7.12 7.12 0 0 1 7.119 7.12v5.472a.508.508 0 0 1-.509.536z" fill="#91CEEC" stroke="#123456" stroke-width="1.34" stroke-linecap="round" stroke-linejoin="round"/><path d="M261.409 93.902h5.197v3.584a2.157 2.157 0 0 1-2.157 2.156h-.89a2.156 2.156 0 0 1-2.157-2.156v-3.584h.007z" fill="#D8EFF7" stroke="#123456" stroke-width=".71" stroke-linecap="round" stroke-linejoin="round"/><rect x="255.776" y="85.236" width="2.679" height="4.206" rx="1.112" fill="#D8EFF7" stroke="#123456" stroke-width="1.34" stroke-linecap="round" stroke-linejoin="round"/><rect x="269.54" y="85.236" width="2.679" height="4.206" rx="1.112" fill="#D8EFF7" stroke="#123456" stroke-width="1.34" stroke-linecap="round" stroke-linejoin="round"/><path d="m266.613 97.037-2.606 2.605 3.517 1.34.241-4.106v-.516a.71.71 0 0 0-.71-.71h-.442v1.387z" fill="#91CEEC" stroke="#123456" stroke-width=".71" stroke-linecap="round" stroke-linejoin="round"/><path d="M264.001 83.588c4.586 0 8.305-1.358 8.305-3.034 0-1.676-3.719-3.034-8.305-3.034-4.587 0-8.305 1.358-8.305 3.034 0 1.675 3.718 3.034 8.305 3.034z" fill="#91CEEC" stroke="#123456" stroke-width="1.34" stroke-linecap="round" stroke-linejoin="round"/><path d="m261.409 97.037 2.598 2.605-3.509 1.34-.241-4.106v-.516a.71.71 0 0 1 .703-.71h.449v1.387z" fill="#91CEEC" stroke="#123456" stroke-width=".71" stroke-linecap="round" stroke-linejoin="round"/><path d="m264.007 99.642-.02 18.184.02-18.184z" fill="#91CEEC"/><path d="m264.007 99.642-.02 18.184" stroke="#123456" stroke-width=".71" stroke-linecap="round" stroke-linejoin="round"/><path d="m256.868 102.154-.02 14.393.02-14.393z" fill="#91CEEC"/><path d="m256.868 102.154-.02 14.393" stroke="#123456" stroke-width=".71" stroke-linecap="round" stroke-linejoin="round"/><path d="m271.201 102.154-.027 14.393.027-14.393z" fill="#91CEEC"/><path d="m271.201 102.154-.027 14.393" stroke="#123456" stroke-width=".71" stroke-linecap="round" stroke-linejoin="round"/><rect x="258.509" y="87.935" width="5.244" height="4.146" rx="1.721" fill="#91CEEC" stroke="#123456" stroke-width=".71" stroke-linecap="round" stroke-linejoin="round"/><path d="M257.578 83.266h12.725v6.785a5.278 5.278 0 0 1-5.278 5.278h-2.17a5.278 5.278 0 0 1-5.277-5.278v-6.785h0z" fill="#D8EFF7" stroke="#123456" stroke-width="1.34" stroke-linecap="round" stroke-linejoin="round"/><path d="m257.209 84.58 4.488 1.339a8.291 8.291 0 0 0 4.608 0l4.574-1.34-6.697-2.197-6.973 2.197z" fill="#91CEEC" stroke="#123456" stroke-width=".71" stroke-linecap="round" stroke-linejoin="round"/><path d="m270.879 84.58-4.099-.67a19.07 19.07 0 0 0-6.409.073l-3.162.576v-2.358l3.302-.589a18.987 18.987 0 0 1 6.396-.053l3.972.67v2.35z" fill="#D8EFF7" stroke="#123456" stroke-width=".71" stroke-linecap="round" stroke-linejoin="round"/><path d="M261.409 91.505s2.23 2.19 5.204 0" stroke="#123456" stroke-width=".71" stroke-linecap="round" stroke-linejoin="round"/><path fill="#D8EFF7" stroke="#123456" stroke-width=".71" stroke-linecap="round" stroke-linejoin="round" d="M266.05 103.621h3.436v.998h-3.436z"/><path d="M264.905 146.057a.476.476 0 0 1-.141 0 3.449 3.449 0 0 1 6.879 0h-6.738zM264.114 148.81a1.012 1.012 0 0 0 .972 1.051h7.233a1.003 1.003 0 0 0 .964-1.051v-.355a1.005 1.005 0 0 0-.964-1.052h-7.233a1.015 1.015 0 0 0-.972 1.052v.355z" fill="#91CEEC" stroke="#123456" stroke-width=".71" stroke-linecap="round" stroke-linejoin="round"/><path d="M264.262 148.133a.572.572 0 0 1-.188-.033 4.635 4.635 0 0 1 9.256.033h-9.068zM263.157 146.057a.47.47 0 0 0 .14 0 3.448 3.448 0 0 0-6.878 0h6.738zM263.947 148.81a1.01 1.01 0 0 1-.938 1.051h-7.233a1.003 1.003 0 0 1-.965-1.051v-.355a1.006 1.006 0 0 1 .965-1.052h7.233a1.015 1.015 0 0 1 .972 1.052l-.034.355z" fill="#91CEEC" stroke="#123456" stroke-width=".71" stroke-linecap="round" stroke-linejoin="round"/><path d="M263.8 148.133a.566.566 0 0 0 .187-.033 4.635 4.635 0 0 0-9.256.033h9.069z" fill="#91CEEC" stroke="#123456" stroke-width=".71" stroke-linecap="round" stroke-linejoin="round"/><path d="M267.59 116.996a7.275 7.275 0 0 1-3.422.71 4.315 4.315 0 0 1-2.934-1.038l.255-.75a.73.73 0 0 1 .871-.456c.91.241 2.578.523 3.523-.328" fill="#D8EFF7"/><path d="M267.59 116.996a7.275 7.275 0 0 1-3.422.71 4.315 4.315 0 0 1-2.934-1.038l.255-.75a.73.73 0 0 1 .871-.456c.91.241 2.578.523 3.523-.328" stroke="#123456" stroke-width=".71" stroke-linecap="round" stroke-linejoin="round"/><path d="M265.688 114.632a3.557 3.557 0 0 1-1.018.435.67.67 0 0 0-.502.717l.107.669 2.458-.355" fill="#D8EFF7"/><path d="M265.688 114.632a3.557 3.557 0 0 1-1.018.435.67.67 0 0 0-.502.717l.107.669 1.011-.08" stroke="#123456" stroke-width=".71" stroke-linecap="round" stroke-linejoin="round"/><path d="M271.321 109.381c-.83 2.263-2.009 3.081-3.73 4.018l-1.903.764a.67.67 0 0 0-.04.944l1.608 1.755a.666.666 0 0 0 .951.04 14.353 14.353 0 0 0 3.757-2.264c.924-.81 2.78-2.987 2.78-5.418v-.891" fill="#91CEEC"/><path d="M271.321 109.381c-.83 2.263-2.009 3.081-3.73 4.018l-1.903.764a.67.67 0 0 0-.04.944l1.608 1.755a.666.666 0 0 0 .951.04 14.353 14.353 0 0 0 3.757-2.264c.924-.81 2.78-2.987 2.78-5.418v-.891" stroke="#123456" stroke-width="1.34" stroke-linecap="round" stroke-linejoin="round"/><path fill="#D8EFF7" stroke="#123456" stroke-width="1.34" stroke-linecap="round" stroke-linejoin="round" d="M286.391 92.657h3.771v57.104h-3.771z"/><rect x="277.865" y="68.773" width="20.615" height="25.826" rx="5.773" fill="#91CEEC" stroke="#123456" stroke-width="1.34" stroke-linecap="round" stroke-linejoin="round"/><path fill-rule="evenodd" clip-rule="evenodd" d="M282.486 75.986v.67a.629.629 0 0 0-.629.623v1.895a.67.67 0 0 0 .629.636v3.791c-.002.451.239.868.63 1.092v.81a1.266 1.266 0 0 0 2.532 0v-.63h5.056v.63a1.267 1.267 0 0 0 1.922 1.173c.405-.247.638-.7.603-1.172V84.7c.395-.222.639-.64.637-1.092v-3.79a.67.67 0 0 0 .629-.637v-1.896a.63.63 0 0 0-.629-.63v-.669a3.16 3.16 0 0 0-3.162-3.161h-5.056a3.162 3.162 0 0 0-3.162 3.161zm9.484 6.986h-.636a.63.63 0 1 1 0-1.26h.636a.629.629 0 1 1 0 1.26zm-7.588 0h.629a.631.631 0 0 0 .546-.945.631.631 0 0 0-.546-.314h-.629a.63.63 0 1 0 0 1.259zm-.63-7.582c0-.697.563-1.262 1.259-1.266h6.323c.699 0 1.266.567 1.266 1.266v4.427a.63.63 0 0 1-.63.63h-7.588a.63.63 0 0 1-.63-.63V75.39z" fill="#289ED8"/><path d="M282.379 90.125h11.707" stroke="#289ED8" stroke-width="1.34" stroke-linecap="round" stroke-linejoin="round"/><path d="M136.671 11.81a.89.89 0 1 0 0-1.78.89.89 0 0 0 0 1.78zM136.671 21.154a.89.89 0 1 0 0-1.78.89.89 0 0 0 0 1.78zM141.343 16.482a.89.89 0 1 0 0-1.78.89.89 0 0 0 0 1.78zM131.999 16.482a.89.89 0 1 0 0-1.779.89.89 0 0 0 0 1.78z" fill="#19B947"/><path d="M141.343 16.482v-1.78a3.781 3.781 0 0 1-3.782-3.782h-1.78A3.783 3.783 0 0 1 132 14.703v1.78a3.78 3.78 0 0 1 3.494 2.334c.19.46.288.95.288 1.448h1.78a3.783 3.783 0 0 1 3.781-3.783z" fill="#19B947"/><path d="M146.825 21.562a.667.667 0 1 0 0-1.335.667.667 0 0 0 0 1.335zM146.825 28.57a.667.667 0 1 0 0-1.335.667.667 0 0 0 0 1.335zM150.328 25.066a.667.667 0 1 0 0-1.334.667.667 0 0 0 0 1.334zM143.321 25.066a.667.667 0 1 0 0-1.335.667.667 0 0 0 0 1.335z" fill="#1CA03B"/><path d="M150.328 25.066V23.73a2.838 2.838 0 0 1-2.836-2.836h-1.335a2.847 2.847 0 0 1-.831 2.005 2.836 2.836 0 0 1-2.006.831v1.335a2.836 2.836 0 0 1 2.836 2.836h1.335a2.829 2.829 0 0 1 .831-2.006 2.832 2.832 0 0 1 2.006-.83zM141 27.331a3.095 3.095 0 0 0-2.85-3.076 20.155 20.155 0 0 1-11.972-5.385h-.013a3.073 3.073 0 0 0-4.23 0h-.012a19.815 19.815 0 0 1-12.03 5.388 3.092 3.092 0 0 0-2.821 3.074 30.117 30.117 0 0 0 15.382 26.28c.085.048.175.085.268.111a3.018 3.018 0 0 0 2.626-.002 1.19 1.19 0 0 0 .264-.109 30.115 30.115 0 0 0 15.38-26.211c.001-.023.008-.046.008-.07z" fill="#1CA03B"/><path d="M124.062 18.027h-.011a3.087 3.087 0 0 0-2.116.843h-.012a19.815 19.815 0 0 1-12.03 5.388 3.091 3.091 0 0 0-2.821 3.074 30.027 30.027 0 0 0 9.14 21.615h1.282a6.587 6.587 0 0 0 6.568-6.567V18.027z" fill="#19B947"/><path fill-rule="evenodd" clip-rule="evenodd" d="M116.008 33.113v1.776a.882.882 0 0 0 .261.629.88.88 0 0 0 .628.26h.888v-3.554h-.888a.89.89 0 0 0-.889.889zM132 34.889v-1.776a.887.887 0 0 0-.888-.889h-.889v3.554h.889a.893.893 0 0 0 .628-.26.884.884 0 0 0 .26-.629zm-11.105 8.663v-.667h6.22v.667a1.544 1.544 0 0 0 .449 1.11 1.556 1.556 0 0 0 2.547-.51c.077-.19.115-.395.113-.6v-1.555h-12.439v1.555a1.557 1.557 0 0 0 1.555 1.554 1.553 1.553 0 0 0 1.555-1.554z" fill="#fff"/><path fill-rule="evenodd" clip-rule="evenodd" d="M127.558 26.894h-7.108a3.556 3.556 0 0 0-3.554 3.553v11.328a.888.888 0 0 0 .889.888h12.438a.886.886 0 0 0 .888-.888V30.447a3.555 3.555 0 0 0-3.553-3.553zm-7.108 2.665a.89.89 0 0 0-.628 1.516.89.89 0 0 0 .628.26h7.108a.89.89 0 0 0 .628-1.516.89.89 0 0 0-.628-.26h-7.108zm-1.777 3.554a.882.882 0 0 1 .261-.629.88.88 0 0 1 .628-.26h8.884a.887.887 0 0 1 .888.889v3.553a.887.887 0 0 1-.888.888h-8.884a.887.887 0 0 1-.889-.888v-3.553zm0 7.107a.882.882 0 0 1 .261-.628.88.88 0 0 1 .628-.26h1.777a.89.89 0 0 1 .628 1.516.89.89 0 0 1-.628.26h-1.777a.886.886 0 0 1-.889-.888zm7.108 0a.9.9 0 0 1 .067-.34.903.903 0 0 1 .481-.48.893.893 0 0 1 .34-.068h1.777a.886.886 0 0 1 .888.888.887.887 0 0 1-.888.888h-1.777a.89.89 0 0 1-.888-.888z" fill="#fff"/><path d="M151 24.915a4.022 4.022 0 0 0-3.144-3.914 3.905 3.905 0 0 0-4.53-3.083c.04-.215.062-.434.067-.653a4.2 4.2 0 0 0-3.767-4.163c-.098-.013-.193-.037-.294-.041-.004-.1-.028-.194-.041-.292a4.18 4.18 0 0 0-8.321 0c-.013.098-.037.192-.042.292-.1.004-.195.028-.293.04a4.187 4.187 0 0 0-3.704 3.542 6.253 6.253 0 0 0-6.951.965 13.792 13.792 0 0 1-8.411 3.765 6.092 6.092 0 0 0-5.569 6.09 29.676 29.676 0 0 0 15.125 25.832c.211.116.43.216.657.299a6.024 6.024 0 0 0 4.763-.005c.231-.082.455-.184.668-.306a29.683 29.683 0 0 0 14.826-21.814c.582.326 1.238.5 1.905.504a4.018 4.018 0 0 0 3.912-3.145A4.018 4.018 0 0 0 151 24.915z" fill="#fff"/><path d="M135.13 13.98a.773.773 0 1 0 0-1.545.773.773 0 0 0 0 1.546zM135.13 22.096a.773.773 0 1 0 0-1.545.773.773 0 0 0 0 1.545zM139.186 18.039a.773.773 0 1 0 0-1.546.773.773 0 0 0 0 1.546zM131.074 18.039a.773.773 0 1 0 0-1.546.773.773 0 0 0 0 1.546z" fill="#19B947"/><path d="M139.186 18.039v-1.546a3.29 3.29 0 0 1-3.034-2.028 3.285 3.285 0 0 1-.249-1.257h-1.545a3.286 3.286 0 0 1-3.284 3.285v1.546a3.285 3.285 0 0 1 3.284 3.285h1.545a3.284 3.284 0 0 1 3.283-3.285z" fill="#19B947"/><path d="M143.945 22.45a.58.58 0 1 0 0-1.158.58.58 0 0 0 0 1.159zM143.945 28.537a.58.58 0 1 0 0-1.158.58.58 0 0 0 0 1.158zM146.987 25.494a.58.58 0 1 0 0-1.158.58.58 0 0 0 0 1.158zM140.903 25.494a.58.58 0 1 0 0-1.158.58.58 0 0 0 0 1.158z" fill="#1CA03B"/><path d="M146.987 25.494v-1.16a2.464 2.464 0 0 1-2.463-2.463h-1.159a2.459 2.459 0 0 1-1.52 2.276 2.46 2.46 0 0 1-.942.188v1.159a2.459 2.459 0 0 1 2.275 1.52c.124.3.187.62.187.944h1.159a2.462 2.462 0 0 1 2.463-2.464zM138.888 27.462a2.683 2.683 0 0 0-2.474-2.672 17.494 17.494 0 0 1-10.394-4.677h-.01a2.666 2.666 0 0 0-3.672 0h-.011a17.2 17.2 0 0 1-10.444 4.68 2.684 2.684 0 0 0-2.449 2.67 26.169 26.169 0 0 0 13.354 22.826c.074.042.152.074.233.096a2.613 2.613 0 0 0 2.28-.001c.08-.022.157-.054.229-.095a26.16 26.16 0 0 0 13.352-22.766c.001-.02.006-.04.006-.061z" fill="#1CA03B"/><path d="M124.184 19.38h-.01c-.683 0-1.34.263-1.836.733h-.012a17.194 17.194 0 0 1-10.443 4.68 2.684 2.684 0 0 0-2.449 2.67 26.099 26.099 0 0 0 7.934 18.774h1.114a5.72 5.72 0 0 0 5.702-5.705V19.38z" fill="#19B947"/><path fill-rule="evenodd" clip-rule="evenodd" d="M117.211 32.483v1.541a.768.768 0 0 0 .77.77h.77v-3.08h-.77a.774.774 0 0 0-.544.225.766.766 0 0 0-.226.545zm13.865 1.541v-1.54a.771.771 0 0 0-.77-.77h-.77v3.08h.77a.769.769 0 0 0 .77-.77zm-9.628 7.51v-.578h5.392v.578a1.347 1.347 0 1 0 2.696 0v-1.348h-10.784v1.348a1.347 1.347 0 1 0 2.696 0z" fill="#fff"/><path fill-rule="evenodd" clip-rule="evenodd" d="M127.225 27.092h-6.162a3.08 3.08 0 0 0-3.082 3.08v9.822a.772.772 0 0 0 .77.77h10.785a.769.769 0 0 0 .77-.77v-9.821a3.079 3.079 0 0 0-1.902-2.847 3.084 3.084 0 0 0-1.179-.234zm-6.162 2.31a.769.769 0 0 0-.545 1.315.77.77 0 0 0 .545.226h6.162a.769.769 0 0 0 .544-1.315.768.768 0 0 0-.544-.226h-6.162zm-1.54 3.081a.771.771 0 0 1 .77-.77h7.702a.77.77 0 0 1 .77.77v3.082a.771.771 0 0 1-.77.77h-7.703a.769.769 0 0 1-.77-.77l.001-3.081zm0 6.163a.771.771 0 0 1 .77-.77h1.54a.772.772 0 0 1 .77.77.772.772 0 0 1-.77.77h-1.541a.774.774 0 0 1-.545-.225.764.764 0 0 1-.225-.545h.001zm6.162 0a.771.771 0 0 1 .77-.77h1.54a.77.77 0 1 1 0 1.54h-1.54a.767.767 0 0 1-.712-.475.766.766 0 0 1-.059-.295h.001z" fill="#fff"/><path d="M153.574 31.988c0 2.926 2.1 5.18 5.138 5.18 2.534 0 3.906-1.61 3.906-1.61l-.952-1.302s-1.162 1.26-2.884 1.26c-2.072 0-3.346-1.666-3.346-3.556 0-1.848 1.232-3.416 3.332-3.416 1.582 0 2.716 1.05 2.716 1.05l.868-1.344s-1.246-1.358-3.668-1.358c-2.926 0-5.11 2.212-5.11 5.096zm10.329 2.786c0 2.044 1.218 2.296 2.198 2.296.294 0 .56-.042.56-.042v-1.554s-.126.014-.266.014c-.462 0-.728-.196-.728-.98V27.06h-1.764v7.714zm3.573-1.344c0 2.03 1.47 3.738 3.836 3.738 1.778 0 2.87-1.022 2.87-1.022l-.686-1.274s-.91.784-2.058.784c-1.064 0-2.03-.644-2.142-1.89h4.928s.042-.476.042-.686c0-1.89-1.106-3.388-3.164-3.388-2.128 0-3.626 1.54-3.626 3.738zm1.876-.882c.168-.924.798-1.484 1.708-1.484.784 0 1.386.518 1.414 1.484h-3.122zm5.778 2.394c0 1.428 1.148 2.226 2.422 2.226 1.624 0 2.184-1.26 2.17-1.26h.028s-.028.224-.028.504V37h1.638v-4.466c0-1.806-1.092-2.842-2.968-2.842-1.694 0-2.8.882-2.8.882l.672 1.274s.938-.686 1.96-.686c.784 0 1.372.322 1.372 1.26v.098h-.238c-1.162 0-4.228.154-4.228 2.422zm1.792-.084c0-.994 1.47-1.12 2.38-1.12h.308v.168c0 .868-.672 1.876-1.61 1.876-.728 0-1.078-.448-1.078-.924zM183.21 37h1.778v-3.276c0-.336.028-.658.126-.952.266-.854.966-1.456 1.918-1.456.91 0 1.134.588 1.134 1.456V37h1.764v-4.592c0-1.89-.896-2.716-2.478-2.716-1.442 0-2.226.882-2.534 1.484h-.028s.028-.224.028-.49v-.826h-1.708V37zm9.79 0h1.806v-8.386h3.262V27.06h-8.33v1.554H193V37zm4.962 0h1.778v-2.828c0-.42.042-.812.154-1.162.336-1.064 1.19-1.498 1.946-1.498.238 0 .42.028.42.028v-1.75s-.154-.028-.322-.028c-1.092 0-1.946.812-2.268 1.834h-.028s.028-.238.028-.504V29.86h-1.708V37zm5.497-8.358h1.764V27.06h-1.764v1.582zm0 8.358h1.778v-7.14h-1.778V37zm3.732 2.8h1.778v-2.996c0-.364-.028-.616-.028-.616h.028s.63.98 2.044.98c1.876 0 3.262-1.47 3.262-3.738 0-2.212-1.232-3.738-3.164-3.738-1.68 0-2.296 1.176-2.296 1.176h-.028s.028-.224.028-.49v-.518h-1.624v9.94zm1.722-6.328c0-1.582.868-2.254 1.792-2.254 1.05 0 1.778.882 1.778 2.24 0 1.414-.812 2.212-1.792 2.212-1.176 0-1.778-1.092-1.778-2.198z" fill="#fff"/></g><defs><clipPath id="clip0"><path fill="#fff" d="M0 0h320v158.2H0z"/></clipPath></defs></svg>